<svg id="Component_23_2" data-name="Component 23 – 2" xmlns="http://www.w3.org/2000/svg" width="22" height="22" viewBox="0 0 22 22">
  <rect id="Rectangle_272" data-name="Rectangle 272" width="22" height="22" fill="rgba(255,255,255,0)"/>
  <path id="exclamation-circle" d="M11,12.8a1.125,1.125,0,1,0,1.125,1.125A1.125,1.125,0,0,0,11,12.8Zm0-1.35a.9.9,0,0,0,.9-.9V7.85a.9.9,0,0,0-1.8,0v2.7A.9.9,0,0,0,11,11.45ZM11,2a9,9,0,1,0,9,9A9,9,0,0,0,11,2Zm0,16.2A7.2,7.2,0,1,1,18.2,11,7.2,7.2,0,0,1,11,18.2Z" fill="#ff613b"/>
</svg>
