<svg xmlns="http://www.w3.org/2000/svg" width="66" height="40" viewBox="0 0 66 40">
  <g id="Group_68" data-name="Group 68" transform="translate(-16871 -3349)">
    <path id="Path_9" data-name="Path 9" d="M2886.971,2388.706s0,0,0,0v0m.283-.008.119,0,.012,0a.028.028,0,0,0,.01.006l.007,0,.01.009a.132.132,0,0,1,.023.023.017.017,0,0,0,0,.006l0,.008,0,0v.006c0,.02,0,.04.005.06v.1l0,.2.008.391.007.291-.474.01-.008-.12c-.005-.041-.005-.1-.007-.143l0-.15-.014-.556s0-.022,0-.021v-.025l0-.085.007,0h0l.028-.005.021,0h.078l.121,0h.023m1.971,8.443h-.01m0,0q-1.458.015-2.915.046l-1.457.031a.664.664,0,0,1-.556-.187.59.59,0,0,1-.085-.289c0-.057-.011-.11-.01-.172l0-.093c0-.031,0-.066,0-.1l-.067-2-.039-1.014-.043-1.015-.1-2.028-.062-1.015-.038-.511c-.013-.169-.023-.334-.031-.5-.013.271-.036.544-.058.827-.01.142-.018.281-.026.419l-.026.416c-.034.554-.059,1.11-.088,1.664-.059,1.11-.1,2.219-.14,3.329l-.054,1.665.005.22a1.542,1.542,0,0,0,.026.222,1.278,1.278,0,0,0,.166.428.955.955,0,0,0,.146.185,1.175,1.175,0,0,0,.177.151,1.474,1.474,0,0,0,.418.19,1.758,1.758,0,0,0,.219.046l.108.015.111.01.421.01.833.018c.556.01,1.111.023,1.667.03l.833.011.416.005h.208c.036,0,.069,0,.115,0s.079-.009.118-.012a1.559,1.559,0,0,0,.846-.384,1.484,1.484,0,0,0,.3-.368,1.764,1.764,0,0,0,.174-.431,1.809,1.809,0,0,0,.044-.224l.008-.061.005-.054c0-.037.006-.073.006-.111,0-.076,0-.144.005-.214v-.21l0-.833c0-.556,0-1.111,0-1.667l-.007-1.665,0-.416,0-.208v-.052c0-.005,0-.03,0-.048l0-.021,0-.014,0-.032,0-.028c0-.018-.008-.038-.013-.057-.008-.04-.019-.077-.031-.115s-.021-.075-.034-.111a1.8,1.8,0,0,0-.094-.217,1.63,1.63,0,0,0-.277-.392,1.378,1.378,0,0,0-.4-.29,1.447,1.447,0,0,0-.469-.137,2.224,2.224,0,0,0-.239-.011l-.207,0-.417.005c-.144,0-.289,0-.433.006l.021-.357.021-.4.012-.2a1.112,1.112,0,0,0,0-.132l0-.04-.005-.032-.011-.062,0-.008,0-.008c-.011-.035-.018-.062-.033-.1a.993.993,0,0,0-.052-.108.846.846,0,0,0-.141-.18.911.911,0,0,0-.174-.138,1,1,0,0,0-.206-.1l-.272-.021-.218-.006a1.123,1.123,0,0,0-.241.011.879.879,0,0,0-.254.08.771.771,0,0,0-.221.163.709.709,0,0,0-.087.106.518.518,0,0,0-.036.059c-.011.02-.02.038-.03.058a.9.9,0,0,0-.077.244c-.005.043-.013.082-.017.125,0,.021,0,.044,0,.064v.033l-.016.672c0,.057,0,.112,0,.172l.007.188c0,.031,0,.064.006.1s.009.057.015.091.015.074.026.114.023.067.033.094l0,.011,0,.01.024.05a.568.568,0,0,0,.041.07.823.823,0,0,0,.1.118l.027.026.027.021c.018.013.04.028.064.043.041.024.08.041.12.06l.008,0h.008c.029.01.064.023.092.03l.08.021a.656.656,0,0,0,.136.02l.083,0,.328.006.172,0,.008.314.028.782.477.008.056-.811.016-.283.558.008.327,0,.164,0,.131,0,.015,0a.482.482,0,0,1,.172.047.41.41,0,0,1,.131.108.705.705,0,0,1,.1.172.8.8,0,0,1,.033.1c.005.018.01.034.013.051a.053.053,0,0,0,0,.015.087.087,0,0,1,0,.022c0,.01,0,.02,0,.027l-.01,1.528v1.606l.007,1.606v.2c0,.066,0,.136,0,.2a.851.851,0,0,1-.005.092.632.632,0,0,1-.01.085.992.992,0,0,1-.041.161.735.735,0,0,1-.031.07c-.007.011-.013.023-.02.033l-.011.018-.008.015c-.013.016-.029.034-.049.054a.3.3,0,0,1-.054.046.52.52,0,0,1-.134.07.79.79,0,0,1-.077.021.285.285,0,0,1-.038.007l-.018,0h-.018Z" transform="translate(14022.029 985.629)" fill="#32125b"/>
    <path id="Path_10" data-name="Path 10" d="M3865.042,2399.761l.416.011.043,0h.023l.02,0c.024,0,.051.007.078.013a.21.21,0,0,1,.031.007l.035.013a.61.61,0,0,1,.064.027.527.527,0,0,1,.195.209.887.887,0,0,1,.064.149l.007.02a.148.148,0,0,1,.006.023l.01.041c0,.013.006.026.008.038l0,.015v.012h0v0h0c-.014.729-.023,1.458-.032,2.187l0,.281c0,.092,0,.193-.005.269,0,.02,0,.038,0,.061s0,.044-.006.064c-.007.043-.012.077-.021.115a.718.718,0,0,1-.079.2.475.475,0,0,1-.059.077.384.384,0,0,1-.071.061l-.042.026a.252.252,0,0,1-.045.021.528.528,0,0,1-.1.033.318.318,0,0,1-.051.009l-.024,0c-.01,0,0,0-.017,0l-.138,0h-.278q-1.119-.005-2.238,0l-1.12,0-.559,0h-.055l-.074,0-.061-.007-.055-.008a.616.616,0,0,1-.11-.027.346.346,0,0,1-.089-.041.207.207,0,0,1-.028-.019l-.007,0-.013-.015a.058.058,0,0,1-.017-.021l-.01-.015-.008-.015a.215.215,0,0,1-.013-.029c-.005-.017-.01-.027-.013-.04s-.011-.056-.016-.086a1.415,1.415,0,0,1-.01-.2l0-.11,0-.08-.023-1.719-.034-1.718v-.012l1.2.056,1.662.062Zm1.99,2.655-.016-1.051-.02-1.051v-.016l0-.024a.406.406,0,0,0-.006-.056c-.005-.031-.008-.051-.015-.077a1.313,1.313,0,0,0-.04-.145,1.687,1.687,0,0,0-.108-.279,1.572,1.572,0,0,0-.371-.492,1.4,1.4,0,0,0-.262-.178,1.355,1.355,0,0,0-.3-.11,1.427,1.427,0,0,0-.309-.044.548.548,0,0,0-.075,0h-.072l-.131,0-1.051.031c-.7.018-1.4.046-2.1.072-.351.01-.7.031-1.05.048l-.6.029-.028-1.19c-.015-.572-.034-1.146-.052-1.717a1.345,1.345,0,0,1,.036-.4.743.743,0,0,1,.177-.333.731.731,0,0,1,.326-.19.616.616,0,0,1,.095-.021l.044-.006.052,0,.215-.008,1.716-.077c.574-.03,1.145-.057,1.718-.094l.867-.061c.162-.011.323-.023.481-.031l.365-.019h0l-.345-.02c-.23-.013-.459-.028-.694-.046-.351-.026-.711-.051-1.059-.071q-1.05-.059-2.1-.1l-1.048-.046-.133-.007a1.186,1.186,0,0,0-.141,0,1.45,1.45,0,0,0-.276.049,1.365,1.365,0,0,0-.5.257,1.321,1.321,0,0,0-.346.446,1.664,1.664,0,0,0-.154.536,2.494,2.494,0,0,0-.021.272l-.008.262-.016.526q-.059,2.1-.1,4.2l-.015,1.051-.007.526,0,.262v.044a.19.19,0,0,1,0,.028v.057c0,.045,0,.092,0,.138a1.835,1.835,0,0,0,.079.57,1.334,1.334,0,0,0,.125.277,1.205,1.205,0,0,0,.189.242,1.624,1.624,0,0,0,1.08.425c.105,0,.187,0,.276,0l.262,0h.526l1.051,0,2.1-.006.265,0a1.149,1.149,0,0,0,.157-.015,1.188,1.188,0,0,0,.149-.028,1.676,1.676,0,0,0,.286-.1c.045-.022.092-.042.135-.069a1.5,1.5,0,0,0,.13-.082c.02-.014.041-.029.062-.047a.635.635,0,0,0,.057-.048,1.418,1.418,0,0,0,.114-.108,1.523,1.523,0,0,0,.1-.118,1.416,1.416,0,0,0,.085-.128,1.74,1.74,0,0,0,.211-.561,1.42,1.42,0,0,0,.023-.146c.008-.047.01-.094.013-.139.007-.1.007-.2.005-.284Z" transform="translate(13061.911 978.998)" fill="#32125b"/>
    <path id="Path_11" data-name="Path 11" d="M3392.007,2411.047l0-.582,0-.291v-.144l0-.043a.38.38,0,0,0-.008-.067.511.511,0,0,0-.116-.238l-.049-.054-.1-.108-.193-.216-.39-.431c-.52-.574-1.042-1.146-1.577-1.706l-.4-.423-.2-.21-.2-.208-.822-.826-.36.306.85,1.16.872,1.139.441.565.448.561.787.969c-.006.743-.016,1.485-.018,2.229v.6l.005.6v.146c0,.02,0,.042,0,.065l-.008.066a.773.773,0,0,1-.059.242.477.477,0,0,1-.329.285.567.567,0,0,1-.058.016l-.054.008-.139,0-.3.009-.6.018c-.4.011-.8.021-1.2.039s-.8.031-1.2.051l-.6.031-.3.016a1.722,1.722,0,0,1-.287-.008l-.072-.013c-.025,0-.049-.011-.072-.018a.668.668,0,0,1-.131-.057.463.463,0,0,1-.184-.207.892.892,0,0,1-.077-.293c-.013-.1-.019-.212-.03-.326-.03-.362-.059-.723-.093-1.085l-.056-.549c-.02-.19-.047-.372-.06-.549-.015.177-.043.359-.062.549l-.056.549q-.051.551-.093,1.1v.007c-.006.092-.016.185-.02.287a1.507,1.507,0,0,0,.01.3,1.194,1.194,0,0,0,.08.3.98.98,0,0,0,.168.267,1.161,1.161,0,0,0,.524.334,1.832,1.832,0,0,0,.3.071c.051.006.1.013.151.016l.077.006.072,0c.772.046,1.546.072,2.32.1l1.16.036.58.013.146,0a1.347,1.347,0,0,0,.159,0c.055,0,.112-.012.162-.02a1.367,1.367,0,0,0,.16-.038,1.523,1.523,0,0,0,.575-.3,1.38,1.38,0,0,0,.228-.239,1.526,1.526,0,0,0,.171-.282,1.867,1.867,0,0,0,.11-.307,2.379,2.379,0,0,0,.053-.316,2.881,2.881,0,0,0,.016-.308l0-.29c0-.385,0-.774-.007-1.161Z" transform="translate(13528.86 968.31)" fill="#32125b"/>
    <path id="Path_12" data-name="Path 12" d="M2390.476,2380.43a1.2,1.2,0,0,0-.282-.356,1.308,1.308,0,0,0-.387-.228,1.758,1.758,0,0,0-.422-.1c-.034,0-.069-.01-.106-.011l-.1-.008-.207,0-.395,0-1.583-.021c-.528,0-1.056-.01-1.585-.008h-.7c-.04,0-.08.007-.116.011a1.617,1.617,0,0,0-.435.121,1.512,1.512,0,0,0-.389.241,1.551,1.551,0,0,0-.3.348,1.612,1.612,0,0,0-.184.417c-.011.037-.019.067-.028.1s-.016.072-.021.108a2,2,0,0,0-.026.221,1.965,1.965,0,0,0-.008.218l0,.2.033,1.583.036,1.583.02.792.03.792c.043,1.055.092,2.113.17,3.169h.475c.087-1.269.144-2.538.19-3.806.021-.634.03-1.269.043-1.9l.038-1.9.01-.476a1.2,1.2,0,0,1,.054-.4.465.465,0,0,1,.2-.263.525.525,0,0,1,.157-.069.6.6,0,0,1,.085-.015c.011,0,.064,0,.1,0l1.9-.008,1.9-.025.475-.007h.051l.052,0c.038,0,.074.007.106.011a.418.418,0,0,1,.048.008l.051.011a.688.688,0,0,1,.085.031.283.283,0,0,1,.122.095.484.484,0,0,1,.06.166,1.213,1.213,0,0,1,.02.212l0,.117c0,.039,0,.08,0,.126l.031.983.036,1.015.1,2.029.123,2.028c.026.346.057.691.089,1.029.017.167.031.334.044.5s.021.329.033.495c.011-.159.022-.318.032-.477.008-.1.015-.2.024-.3l.072-.793.033-.4c.01-.135.016-.264.026-.4l.048-.79.047-.79c.015-.264.026-.528.038-.791.025-.527.053-1.054.072-1.582l.028-.792.025-.793.007-.2c0-.015,0-.036,0-.05v-.044l0-.1a2.19,2.19,0,0,0-.022-.423A1.378,1.378,0,0,0,2390.476,2380.43Z" transform="translate(14514.018 993.703)" fill="#32125b"/>
    <path id="Path_13" data-name="Path 13" d="M4361.011,2380.852a1.412,1.412,0,0,0-.136-.421,1.227,1.227,0,0,0-.282-.356,1.294,1.294,0,0,0-.388-.228,1.721,1.721,0,0,0-.208-.066,1.643,1.643,0,0,0-.213-.039c-.035,0-.069-.01-.106-.011l-.1-.008-.207,0-.395,0-1.583-.021c-.528,0-1.056-.01-1.583-.008h-.6c-.033,0-.062,0-.108,0s-.08.007-.116.011a1.6,1.6,0,0,0-.434.121,1.511,1.511,0,0,0-.391.241,1.573,1.573,0,0,0-.3.348,1.7,1.7,0,0,0-.184.417c-.011.037-.02.067-.027.1s-.016.072-.021.108a1.888,1.888,0,0,0-.025.221,1.8,1.8,0,0,0-.009.218l0,.2.033,1.583.037,1.583.02.792.028.792c.043,1.055.092,2.113.17,3.169h.476c.086-1.269.146-2.538.19-3.806.021-.634.029-1.269.042-1.9l.038-1.9.01-.476a1.193,1.193,0,0,1,.057-.4.466.466,0,0,1,.2-.263.514.514,0,0,1,.159-.069.541.541,0,0,1,.085-.015c.009,0,.063,0,.1,0l1.9-.008,1.9-.025.476-.007h.05l.054,0c.037,0,.074.007.107.011l.046.008.05.011a.651.651,0,0,1,.086.031.288.288,0,0,1,.121.095.455.455,0,0,1,.061.166,1.09,1.09,0,0,1,.019.212l0,.117c0,.039,0,.08,0,.126l.032.983.036,1.015.1,2.029.123,2.028c.027.346.058.691.09,1.029.014.167.03.334.043.5s.021.329.033.495c.012-.159.023-.318.033-.477.007-.1.015-.2.023-.3l.073-.793.033-.4c.011-.135.018-.264.026-.4l.049-.79.048-.79c.015-.264.024-.528.037-.791.023-.527.051-1.054.071-1.582l.027-.792.024-.793.007-.2c0-.015,0-.036,0-.05v-.044l0-.1A1.948,1.948,0,0,0,4361.011,2380.852Z" transform="translate(12575.965 993.703)" fill="#32125b"/>
    <path id="Path_14" data-name="Path 14" d="M1178.608,1431.422l-.031-1.364-.036-1.464,1.372-.036,1.48-.044.085,2.606.008.246Zm11.717,3.77-1.623-1.864-1.628-1.862-.011-.012a.51.51,0,0,0-.392-.175l-2.108.031-2.109.036-.764.015.008-.241.093-2.814a.2.2,0,0,0-.19-.2h-.013l-1.675-.049-1.677-.044a.288.288,0,0,0-.3.282v.015l-.043,1.752-.041,1.752v0a.372.372,0,0,0,.364.379h.017l3.285.065.01.271c.018.469.036.938.057,1.406.021-.469.039-.938.057-1.406l.01-.269.8.016,2.109.036,1.855.026,1.426,1.721,1.257,1.51-2.209,2.559c-.846.977-1.685,1.96-2.526,2.941l-1.26,1.472-1.257,1.477-2,2.349-1.895-2.334-2.4-2.944-2.411-2.937-2.146-2.6,2.056-2.862,2.3-3.231c.764-1.079,1.531-2.157,2.292-3.239l2.083-2.969,1.065,1.249,1.3,1.516c.434.5.867,1.011,1.3,1.514s.874,1.006,1.315,1.506c-.393-.538-.793-1.072-1.19-1.607s-.8-1.067-1.2-1.6l-1.2-1.6-1.208-1.592a.275.275,0,0,0-.048-.049.264.264,0,0,0-.371.048l-.008.01-2.436,3.134c-.811,1.044-1.615,2.095-2.423,3.142l-2.41,3.152-2.4,3.16a.559.559,0,0,0,.006.682l.008.011,2.361,2.978,2.367,2.973,2.377,2.965,2.383,2.96a.888.888,0,0,0,.087.089.658.658,0,0,0,.926-.075l0,0,2.506-2.955,1.252-1.48,1.247-1.483c.831-.988,1.666-1.975,2.493-2.969l2.483-2.977.008-.008a.584.584,0,0,0-.008-.756Z" transform="translate(15707.573 1935.161)" fill="#32125b"/>
    <path id="Path_15" data-name="Path 15" d="M786.2,913.111c1.228-1.743,2.4-3.416,3.58-5.082,1.1-1.558,2.2-3.121,3.329-4.653.467-.636.279-1.4.31-2.1.077-1.766.079-3.537.082-5.307,0-.449.108-.587.449-.577q1.257.034,2.513,0c.343-.01.47.136.452.582a10.144,10.144,0,0,0,.107,1.978c.223-.279.452-.55.67-.837,1.5-1.974,3.008-3.945,4.5-5.935.256-.339.413-.408.71-.041,1.949,2.413,3.918,4.8,5.88,7.193q4.335,5.289,8.669,10.58a3.993,3.993,0,0,1,.228.378,4.2,4.2,0,0,1-.475.064c-1.642.011-3.285.034-4.927.01a1.063,1.063,0,0,1-.734-.37c-2.093-2.494-4.168-5.012-6.248-7.524-.933-1.124-1.865-2.245-2.864-3.446l-10.922,14.768,12.053,14.846-2.813,3.256C795.9,924.969,791.073,919.067,786.2,913.111Z" transform="translate(16084.8 2458.109)" fill="#ff613b"/>
  </g>
</svg>
