<svg xmlns="http://www.w3.org/2000/svg" width="18" height="15" viewBox="0 0 18 15">
  <path id="twitter" d="M20,5.646a7.5,7.5,0,0,1-2.124.59A3.79,3.79,0,0,0,19.5,4.145a7.287,7.287,0,0,1-2.349.921A3.629,3.629,0,0,0,12.7,4.3a3.81,3.81,0,0,0-1.848,4.217,10.4,10.4,0,0,1-7.6-3.952,3.9,3.9,0,0,0-.5,1.907A3.793,3.793,0,0,0,4.394,9.608a3.581,3.581,0,0,1-1.674-.47v.046a3.756,3.756,0,0,0,2.97,3.685,3.462,3.462,0,0,1-.99.157,4.311,4.311,0,0,1-.693-.064,3.71,3.71,0,0,0,3.447,2.616A7.29,7.29,0,0,1,2.9,17.2a6.975,6.975,0,0,1-.9-.055,10.239,10.239,0,0,0,5.661,1.7,10.308,10.308,0,0,0,7.475-3.117A10.809,10.809,0,0,0,18.2,8.088V7.6A7.7,7.7,0,0,0,20,5.646Z" transform="translate(-2 -3.849)" fill="#d0d0d0"/>
</svg>
