<svg id="Component_3_5" data-name="Component 3 – 5" xmlns="http://www.w3.org/2000/svg" width="22" height="22" viewBox="0 0 22 22">
  <rect id="Rectangle_214" data-name="Rectangle 214" width="22" height="22" fill="rgba(255,255,255,0)"/>
  <path id="user" d="M14.406,11.633a5.419,5.419,0,1,0-6.711,0,9,9,0,0,0-5.626,7.358.91.91,0,0,0,1.809.2,7.24,7.24,0,0,1,14.381,0,.9.9,0,0,0,.9.8h.1a.9.9,0,0,0,.8-.989,9,9,0,0,0-5.653-7.367Zm-3.355-.639a3.6,3.6,0,1,1,3.618-3.6A3.608,3.608,0,0,1,11.05,10.994Z" transform="translate(-0.064 0.005)" fill="#fff"/>
</svg>
