<svg xmlns="http://www.w3.org/2000/svg" width="16.951" height="18" viewBox="0 0 16.951 18">
  <g id="Layer_2" data-name="Layer 2" transform="translate(-0.386 -0.005)">
    <g id="Layer_1" data-name="Layer 1" transform="translate(0.386 0.005)">
      <path id="Path_715" data-name="Path 715" d="M16.54,3.278H12.934a4.177,4.177,0,0,0-8.156,0H1.184a.915.915,0,0,0,0,1.815H2.661l.854,10.136a3.051,3.051,0,0,0,3.021,2.777h4.644A3.051,3.051,0,0,0,14.2,15.229l.851-10.136H16.54a.915.915,0,0,0,0-1.815ZM8.857,1.834a2.368,2.368,0,0,1,2.182,1.458H6.676A2.4,2.4,0,0,1,8.857,1.834ZM7.5,13.883H7.445a.754.754,0,0,1-.754-.7L6.4,8.821a.757.757,0,0,1,1.51-.1l.29,4.36a.748.748,0,0,1-.7.8Zm3.527-.7a.757.757,0,0,1-.754.7h-.052a.754.754,0,0,1-.7-.8l.305-4.36a.749.749,0,1,1,1.5.1Z" transform="translate(-0.386 -0.005)" fill="#cfcfcf"/>
    </g>
  </g>
</svg>
