<svg id="Layer_2" data-name="Layer 2" xmlns="http://www.w3.org/2000/svg" width="23.873" height="18.301" viewBox="0 0 23.873 18.301">
  <g id="Layer_1" data-name="Layer 1">
    <g id="credit_card" data-name="credit card">
      <path id="Path_709" data-name="Path 709" d="M19.5,0H4.378A4.382,4.382,0,0,0,0,4.378v9.549A4.382,4.382,0,0,0,4.378,18.3H19.5a4.382,4.382,0,0,0,4.378-4.374V4.378A4.382,4.382,0,0,0,19.5,0ZM4.378,2.387H19.5a2,2,0,0,1,1.991,1.991V5.3H2.387V4.378A2,2,0,0,1,4.378,2.387ZM19.5,15.914H4.378a1.991,1.991,0,0,1-1.991-1.987V7.688h19.1v6.239A1.991,1.991,0,0,1,19.5,15.914Z" fill="#dbab5e"/>
      <path id="Path_710" data-name="Path 710" d="M17.428,28.607H11.064a1.194,1.194,0,0,1,0-2.387h6.365a1.194,1.194,0,1,1,0,2.387Z" transform="translate(-5.876 -15.611)" fill="#dbab5e"/>
    </g>
  </g>
</svg>
