<svg xmlns="http://www.w3.org/2000/svg" width="19.975" height="18" viewBox="0 0 19.975 18">
  <g id="Layer_2" data-name="Layer 2" transform="translate(0.001)">
    <g id="Layer_1" data-name="Layer 1" transform="translate(-0.001)">
      <path id="laptop" d="M19.827,14.9l-1.385-3.7v-9A2.2,2.2,0,0,0,16.252,0H3.724a2.2,2.2,0,0,0-2.2,2.2v9L.145,14.9A2.3,2.3,0,0,0,2.295,18H17.677a2.3,2.3,0,0,0,2.15-3.1ZM18.172,16.05a.6.6,0,0,1-.494.257H14.22a.494.494,0,0,0,0-.074.846.846,0,0,0-.847-.847H6.6a.847.847,0,0,0-.847.847.508.508,0,0,0,0,.074H2.295a.6.6,0,0,1-.565-.813l1.236-3.3H17.01l1.233,3.291a.6.6,0,0,1-.071.565Z" transform="translate(0.001)" fill="#dbab5e"/>
    </g>
  </g>
</svg>
