<svg id="Layer_2" data-name="Layer 2" xmlns="http://www.w3.org/2000/svg" width="23" height="18" viewBox="0 0 23 18">
  <g id="Layer_1" data-name="Layer 1">
    <path id="truck" d="M23,9.117a.976.976,0,0,0-.39-.783L18.322,3.377a.977.977,0,0,0-.733-.337H14.5V.978A.976.976,0,0,0,13.527,0H.975A.976.976,0,0,0,0,.978V15.064a.976.976,0,0,0,.975.978H2.7a2.916,2.916,0,0,0,5.508,0h6.814a2.916,2.916,0,0,0,5.508,0h1.493A.976.976,0,0,0,23,15.064ZM17.153,5l2.729,3.13H14.5V5ZM5.458,16.042a.978.978,0,1,1,.975-.978.976.976,0,0,1-.975.978Zm12.319,0a.978.978,0,1,1,.975-.978.976.976,0,0,1-.975.978Z" fill="#dbab5e"/>
  </g>
</svg>
