<svg xmlns="http://www.w3.org/2000/svg" width="17" height="15" viewBox="0 0 17 15">
  <g id="Layer_2" data-name="Layer 2" transform="translate(-0.475 -0.059)">
    <g id="Layer_1" data-name="Layer 1" transform="translate(0.475 0.059)">
      <g id="shopping_cart-1" data-name="shopping cart-1" transform="translate(0)">
        <path id="Path_683" data-name="Path 683" d="M17.323,3.451a.882.882,0,0,0-.706-.357H4.749l-.1-.485A3.069,3.069,0,0,0,2.2.227L1.368.059A.865.865,0,0,0,.493.726a.83.83,0,0,0,.526.946l.837.167A1.392,1.392,0,0,1,2.969,2.921L3.2,4.056v.036L4.046,8.3a3.118,3.118,0,0,0,3.085,2.446h5.519A3.155,3.155,0,0,0,15.58,8.795l1.836-4.569a.809.809,0,0,0-.093-.775Z" transform="translate(-0.475 -0.059)" fill="#ad8450"/>
        <path id="Path_684" data-name="Path 684" d="M38.547,43.93a1.378,1.378,0,1,0,1.37,1.376,1.378,1.378,0,0,0-1.37-1.376Z" transform="translate(-26.428 -31.687)" fill="#ad8450"/>
        <circle id="Ellipse_28" data-name="Ellipse 28" cx="1.378" cy="1.378" r="1.378" transform="translate(5.089 12.24)" fill="#ad8450"/>
      </g>
    </g>
  </g>
</svg>
