<svg id="Layer_2" data-name="Layer 2" xmlns="http://www.w3.org/2000/svg" width="16.59" height="16.652" viewBox="0 0 16.59 16.652">
  <g id="Layer_1" data-name="Layer 1">
    <g id="form_editing" data-name="form editing">
      <path id="Path_716" data-name="Path 716" d="M42.065,33.143,40.9,31.983a.7.7,0,0,0-1,0l-3.522,3.525a.708.708,0,0,0-.183.322l-.4,1.561a.7.7,0,0,0,.683.881.745.745,0,0,0,.175-.023l1.558-.4a.723.723,0,0,0,.325-.186l3.522-3.522A.708.708,0,0,0,42.065,33.143Z" transform="translate(-25.681 -22.808)"/>
      <path id="Path_717" data-name="Path 717" d="M13.135,7.922a.7.7,0,0,0,.694-.706V2.963A2.963,2.963,0,0,0,10.866,0h-7.9A2.963,2.963,0,0,0,0,2.963V13.689a2.963,2.963,0,0,0,2.963,2.963h5.4a.737.737,0,0,0,.55-.223.7.7,0,0,0,.076-.869,4.939,4.939,0,0,1,4.149-7.637ZM6.079,13.076H3.285a.734.734,0,0,1-.745-.632.706.706,0,0,1,.7-.779H6.026a.734.734,0,0,1,.748.635.706.706,0,0,1-.706.776ZM7.242,9.5H3.291a.734.734,0,0,1-.751-.635.706.706,0,0,1,.7-.776H7.194a.734.734,0,0,1,.742.632.706.706,0,0,1-.706.779ZM3.257,5.834a.706.706,0,0,1,0-1.411h6.774a.706.706,0,1,1,0,1.411Z"/>
    </g>
  </g>
</svg>
