<svg id="Layer_2" data-name="Layer 2" xmlns="http://www.w3.org/2000/svg" width="17" height="15" viewBox="0 0 17 15">
  <g id="Layer_1" data-name="Layer 1">
    <path id="mail" d="M13.975,0H3.025A3.06,3.06,0,0,0,0,3.088v8.824A3.06,3.06,0,0,0,3.025,15H13.975A3.06,3.06,0,0,0,17,11.912V3.088A3.06,3.06,0,0,0,13.975,0Zm.931,5.091L9.736,8.059a2.5,2.5,0,0,1-2.472,0L2.095,5.091a.742.742,0,0,1-.06-1.328.708.708,0,0,1,.768.06L7.97,6.765a1.067,1.067,0,0,0,1.06,0L14.2,3.824a.708.708,0,0,1,.734-.009A.743.743,0,0,1,14.905,5.1Z" fill="#f1ddbe"/>
  </g>
</svg>
