<svg xmlns="http://www.w3.org/2000/svg" width="15.008" height="15" viewBox="0 0 15.008 15">
  <g id="Layer_2" data-name="Layer 2" transform="translate(0.01 0.003)">
    <g id="Layer_1" data-name="Layer 1" transform="translate(-0.01 -0.003)">
      <path id="call" d="M14.876,12.218,11.492,8.832a.4.4,0,0,0-.56,0L9.568,10.2a12.786,12.786,0,0,1-2.71-2.066,12.786,12.786,0,0,1-2.066-2.71L6.155,4.056a.392.392,0,0,0,0-.558L2.771.114a.392.392,0,0,0-.558,0L.782,1.535A2.713,2.713,0,0,0,.256,4.621a21.554,21.554,0,0,0,4.21,5.9,21.554,21.554,0,0,0,5.9,4.21,2.725,2.725,0,0,0,3.087-.526l1.421-1.421a.392.392,0,0,0,0-.568Z" transform="translate(0.01 0.003)" fill="#f1ddbe"/>
    </g>
  </g>
</svg>
