<svg xmlns="http://www.w3.org/2000/svg" width="30" height="30" viewBox="0 0 30 30">
  <g id="Group_241" data-name="Group 241" transform="translate(-1 -1)">
    <path id="Path_718" data-name="Path 718" d="M16.339,9.322a1,1,0,0,0-1.364-1.463L12.05,10.587,9.322,7.66A1,1,0,0,0,7.859,9.024l2.727,2.926L7.66,14.677A1,1,0,1,0,9.024,16.14l2.926-2.727,2.727,2.926a1,1,0,0,0,1.463-1.364L13.413,12.05Z" transform="translate(4 4)" fill="#f8eedf"/>
    <path id="Path_719" data-name="Path 719" d="M1,16A15,15,0,1,1,16,31,15,15,0,0,1,1,16ZM16,28.273A12.273,12.273,0,1,1,28.273,16,12.273,12.273,0,0,1,16,28.273Z" fill="#f8eedf" fill-rule="evenodd"/>
  </g>
</svg>
